HIERARCHY
ROOT Hips
{
	OFFSET -3.958830 18.904000 13.208200
	CHANNELS 6 Xposition Yposition Zposition Zrotation Yrotation Xrotation 
	JOINT LHipJoint
	{
		OFFSET 0.000000 0.000000 0.000000
		CHANNELS 3 Zrotation Yrotation Xrotation
		JOINT LeftUpLeg
		{
			OFFSET 1.800000 -1.400000 0.085000
			CHANNELS 3 Zrotation Yrotation Xrotation
			JOINT LeftLeg
			{
				OFFSET 2.215000 -6.000000 0.000000
				CHANNELS 3 Zrotation Yrotation Xrotation
				JOINT LeftFoot
				{
					OFFSET 2.500000 -6.900000 0.000000
					CHANNELS 3 Zrotation Yrotation Xrotation
					JOINT LeftToeBase
					{
						OFFSET 0.200000 -0.500000 1.950000
						CHANNELS 3 Zrotation Yrotation Xrotation
						End Site
						{
							OFFSET 0.000000 0.000000 0.000000
						}
					}
				}
			}
		}
	}
	JOINT RHipJoint
	{
		OFFSET 0.000000 0.000000 0.000000
		CHANNELS 3 Zrotation Yrotation Xrotation
		JOINT RightUpLeg
		{
			OFFSET -1.800000 -1.400000 0.085000
			CHANNELS 3 Zrotation Yrotation Xrotation
			JOINT RightLeg
			{
				OFFSET -2.215000 -6.000000 0.000000
				CHANNELS 3 Zrotation Yrotation Xrotation
				JOINT RightFoot
				{
					OFFSET -2.500000 -6.900000 0.000000
					CHANNELS 3 Zrotation Yrotation Xrotation
					JOINT RightToeBase
					{
						OFFSET -0.200000 -0.500000 1.950000
						CHANNELS 3 Zrotation Yrotation Xrotation
						End Site
						{
							OFFSET 0.000000 0.000000 0.000000
						}
					}
				}
			}
		}
	}
	JOINT LowerBack
	{
		OFFSET 0.000000 0.000000 0.000000
		CHANNELS 3 Zrotation Yrotation Xrotation
		JOINT Spine
		{
			OFFSET -0.087000 1.940000 -0.288900
			CHANNELS 3 Zrotation Yrotation Xrotation
			JOINT Spine1
			{
				OFFSET 0.000000 1.950000 0.060000
				CHANNELS 3 Zrotation Yrotation Xrotation
				JOINT Neck
				{
					OFFSET 0.000000 0.000000 0.000000
					CHANNELS 3 Zrotation Yrotation Xrotation
					JOINT Neck1
					{
						OFFSET 0.000000 1.600000 0.340000
						CHANNELS 3 Zrotation Yrotation Xrotation
						JOINT Head
						{
							OFFSET 0.000000 1.667000 -0.240000
							CHANNELS 3 Zrotation Yrotation Xrotation
							End Site
							{
								OFFSET 0.000000 0.000000 0.000000
							}
						}
					}
				}
				JOINT LeftShoulder
				{
					OFFSET 0.000000 0.000000 0.000000
					CHANNELS 3 Zrotation Yrotation Xrotation
					JOINT LeftArm
					{
						OFFSET 2.700000 1.550000 -0.730000
						CHANNELS 3 Zrotation Yrotation Xrotation
						JOINT LeftForeArm
						{
							OFFSET 5.450000 0.000000 0.000000
							CHANNELS 3 Zrotation Yrotation Xrotation
							JOINT LeftHand
							{
								OFFSET 3.450000 0.000000 0.000000
								CHANNELS 3 Zrotation Yrotation Xrotation
								JOINT LeftHandIndex1
								{
									OFFSET 0.750000 0.000000 0.000000
									CHANNELS 3 Zrotation Yrotation Xrotation
									End Site
									{
										OFFSET 0.000000 0.000000 0.000000
									}
								}
							}
						}
					}
				}
				JOINT RightShoulder
				{
					OFFSET 0.000000 0.000000 0.000000
					CHANNELS 3 Zrotation Yrotation Xrotation
					JOINT RightArm
					{
						OFFSET -2.700000 1.550000 -0.730000
						CHANNELS 3 Zrotation Yrotation Xrotation
						JOINT RightForeArm
						{
							OFFSET -5.450000 0.000000 0.000000
							CHANNELS 3 Zrotation Yrotation Xrotation
							JOINT RightHand
							{
								OFFSET -3.450000 0.000000 0.000000
								CHANNELS 3 Zrotation Yrotation Xrotation
								JOINT RightHandIndex1
								{
									OFFSET -0.750000 0.000000 0.000000
									CHANNELS 3 Zrotation Yrotation Xrotation
									End Site
									{
										OFFSET 0.000000 0.000000 0.000000
									}
								}
							}
						}
					}
				}
			}
		}
	}
}
MOTION
Frames: 13
Frame Time: 0.016667
-0.346400 17.011530 3.079980 5.401239 -24.790438 -14.161552 -15.449176 12.854715 3.715310 -2.361543 -3.809175 13.610355 -24.713407 13.680760 20.706570 1.099253 8.568252 1.700699 0.142380 0.085130 0.319480 18.425602 -8.544483 3.671958 23.375870 5.191241 -44.334055 -36.191101 8.613557 53.568610 -1.551887 -9.377313 1.089637 0.101300 -0.010130 0.103290 -3.522011 -5.182992 -8.283232 7.961584 -14.880041 30.416781 -5.970769 -13.303531 15.133299 -1.800324 -6.431275 -11.100875 -23.077454 18.121911 39.641596 -11.703310 21.046990 -5.249820 -16.944859 -15.248647 3.103456 -10.943252 -37.355170 8.398856 135.223719 -52.366337 -100.434974 -4.157293 2.589640 0.170050 0.150310 0.054620 -0.050610 21.057561 9.674339 7.640323 36.943169 -7.834616 -6.594963 2.133876 9.606714 -0.626109 2.502116 -1.210876 -0.123920 0.014950 -0.018270 -0.224250 
-0.334810 17.061700 3.110950 7.332475 -23.409173 -14.015616 -15.443408 12.884908 3.847126 -1.173726 -5.376529 10.593206 -28.504832 15.152112 23.109973 1.227535 9.181008 1.522969 0.115640 0.047490 0.294060 18.415827 -8.790826 3.221104 19.957529 3.183213 -43.202143 -40.894674 10.494358 54.897714 -1.782142 -10.458629 0.790477 0.095740 0.038550 0.106820 -3.486024 -5.283959 -8.172952 8.257757 -15.214041 27.907368 -6.691744 -13.662420 14.510666 -1.693431 -6.628717 -10.886403 -23.809116 17.914084 38.959618 -11.696190 20.754250 -3.350130 -16.368626 -13.328687 2.772831 -13.766488 -37.940424 10.650874 136.266560 -55.912955 -106.776435 -4.176765 2.683391 0.138310 0.191750 0.013480 -0.042100 20.206068 7.956864 7.195675 36.567034 -8.473407 -6.345584 0.913477 9.149207 -0.621751 2.514115 -1.224177 -0.142460 0.019310 -0.006100 -0.216410 
-0.339230 17.105790 3.185680 9.609375 -24.361551 -13.966919 -15.450172 12.824218 4.031817 0.739954 -6.822098 7.298806 -33.657487 17.148879 24.837408 1.406875 9.901823 1.305075 0.089550 0.023010 0.250490 18.402901 -8.946712 2.841661 16.166564 1.680197 -40.558393 -44.954804 12.142199 54.783516 -1.950943 -11.180612 0.612281 0.091930 0.090470 0.098810 -3.454094 -5.293473 -8.101669 8.709977 -14.825296 25.274735 -7.503329 -12.987408 13.740271 -1.333849 -7.062747 -11.027936 -25.565032 18.990213 38.448566 -10.592110 20.740260 -1.438750 -15.819432 -11.011528 2.678691 -18.447939 -36.583698 12.127535 138.272557 -61.621254 -117.628040 -4.159958 2.879607 0.113190 0.218720 -0.022960 -0.031470 18.796468 6.470701 6.890848 35.132887 -9.119172 -6.225182 0.855846 9.833671 -0.605202 2.502680 -1.228446 -0.157430 0.037280 0.013820 -0.199460 
-0.369770 17.125610 3.238690 11.398760 -26.174688 -14.092345 -15.470175 12.793756 4.228762 3.903873 -7.909692 3.751212 -38.200245 18.977617 25.806341 1.548285 10.455994 1.116580 0.107620 0.048720 0.249100 18.361561 -9.060729 2.523608 12.951453 0.401443 -36.635223 -49.007217 13.384680 52.446595 -2.066207 -11.463232 0.556991 0.102040 0.087960 0.095120 -3.329225 -5.334907 -8.080489 8.570691 -13.751579 23.435417 -7.486055 -11.561628 13.436106 -0.956733 -7.139824 -11.194374 -26.621823 19.633285 38.997510 -9.823600 20.493030 -0.951840 -14.838954 -9.346388 2.380693 -22.347381 -35.908458 12.749194 135.261007 -68.817015 -122.144274 -4.108127 2.961888 0.114970 0.208010 -0.014120 -0.018860 16.844705 5.703183 6.950407 33.967478 -9.714514 -6.441698 1.126018 12.114317 -0.558577 2.469790 -1.255507 -0.148020 0.042210 0.002910 -0.189210 
-0.402630 17.150810 3.270100 12.208245 -27.721356 -14.180176 -15.422255 12.844880 4.366233 6.964596 -8.219838 1.168002 -39.691139 19.598082 26.031520 1.560697 10.619097 1.036470 0.134770 0.082110 0.268780 18.361404 -9.370089 2.120068 9.613517 -1.253543 -31.618853 -48.550868 12.191955 48.969661 -1.920904 -10.750079 0.760565 0.118720 0.068940 0.094750 -3.344672 -5.146525 -7.913580 9.244217 -13.456376 21.912788 -7.936910 -11.010285 13.418940 -0.641749 -7.345503 -11.108595 -27.922625 20.503954 39.753131 -10.135010 20.635010 -0.950890 -14.522422 -8.138022 2.205160 -23.483401 -34.635444 12.421124 125.731053 -76.613304 -118.970380 -4.128020 2.786653 0.117470 0.197690 0.001450 -0.013840 15.804026 5.114854 6.706663 31.558855 -8.697394 -6.250937 2.250415 15.091849 -0.418501 2.420133 -1.302267 -0.136150 0.041240 -0.012810 -0.188970 
-0.439180 17.150500 3.278590 12.550762 -29.214774 -14.060596 -15.355455 13.028975 4.413032 10.122092 -7.773728 -1.578169 -37.887684 19.318404 26.486847 1.454937 10.468245 1.030989 0.167830 0.121530 0.288450 18.355103 -9.746353 1.736682 5.533398 -2.592705 -26.798014 -45.209569 10.019526 45.649698 -1.665930 -9.637538 1.074997 0.132230 0.039730 0.104160 -3.338102 -4.999354 -7.723016 9.785930 -13.016002 20.921961 -7.817795 -10.489288 12.988415 -0.443432 -7.435958 -10.892239 -28.523621 21.172738 40.606193 -10.299870 20.731730 -1.516260 -13.846881 -8.556360 1.014940 -23.166971 -31.822966 7.134747 171.924750 -89.332584 -173.041533 -3.812329 3.377921 0.134580 0.177280 0.031330 -0.008350 14.621561 5.833399 7.248819 28.908719 -7.983069 -5.867110 2.809624 17.397001 -0.214813 2.383012 -1.344389 -0.116460 0.033750 -0.027710 -0.189060 
-0.482340 17.134480 3.295760 13.134129 -30.858827 -13.888725 -15.285169 13.256664 4.455538 13.204953 -6.958622 -4.260734 -35.274374 18.518900 26.304066 1.302055 10.129540 1.080329 0.170610 0.124880 0.280790 18.333768 -10.133563 1.400304 0.968547 -3.378588 -22.144768 -40.025717 7.342896 41.549741 -1.308078 -8.193099 1.513569 0.121810 0.021850 0.085260 -3.280648 -4.836134 -7.591765 9.702653 -12.153211 20.472806 -7.354083 -9.558808 12.904943 0.081135 -7.648417 -11.751404 -28.996425 21.951743 41.096864 -9.141750 20.539570 -1.403410 -14.065284 -9.483366 1.700043 -20.544876 -28.300632 5.350394 -38.435572 -82.482176 31.269769 -3.845665 3.458408 0.163440 0.140530 0.046500 -0.011890 13.907778 7.755842 8.043903 26.176728 -7.965515 -5.706865 1.977013 19.785762 -0.050411 2.366192 -1.347288 -0.112750 0.041800 -0.024690 -0.187180 
-0.510050 17.080720 3.269690 14.132621 -32.000748 -13.673786 -15.281179 13.582863 4.496035 15.417250 -6.345333 -8.010953 -31.446459 17.525701 27.087719 1.106704 9.740907 1.149665 0.173440 0.124430 0.280260 18.248874 -10.429833 1.059754 -4.344284 -3.757887 -18.368387 -32.783826 4.222204 37.419492 -0.898185 -6.658313 2.001599 0.121020 0.028360 0.082770 -2.975962 -5.026892 -7.507186 7.677094 -11.249938 20.170510 -5.357258 -8.909590 12.529806 0.062000 -7.954756 -11.973298 -29.274611 22.529043 41.135576 -8.939800 20.718830 -1.113350 -13.926642 -9.902479 1.986563 -18.281057 -24.401032 2.947659 -37.240741 -72.563438 25.903859 -3.796489 3.499439 0.169610 0.137780 0.048580 -0.003230 13.999952 9.505111 8.247374 21.234777 -5.703429 -4.905236 0.661426 22.117543 0.040946 2.350225 -1.376539 -0.116370 0.049630 -0.029230 -0.183960 
-0.519660 17.034530 3.233110 14.211363 -34.075847 -13.045943 -15.226107 13.704903 4.495283 18.079815 -5.625458 -11.982839 -27.569494 16.285426 27.205942 0.898211 9.216403 1.253779 0.167600 0.119100 0.283720 18.236114 -10.655872 0.927464 -7.935768 -3.328546 -16.520885 -26.358370 1.969490 35.599132 -0.641643 -5.736098 2.306907 0.104510 0.019300 0.085380 -2.954968 -4.845188 -7.463134 7.951699 -10.492170 20.485080 -4.606141 -8.185402 12.102438 0.445993 -8.334571 -12.247135 -29.288495 22.650194 40.847962 -9.700890 21.183370 -0.863230 -13.614936 -10.754195 2.338242 -15.719620 -21.020788 1.184366 -34.654092 -61.424338 20.006438 -3.747939 3.503715 0.160720 0.134800 0.057950 0.000670 13.008901 11.440853 8.435528 17.227397 -3.269799 -4.438720 0.230872 24.568401 0.198105 2.353600 -1.389156 -0.103210 0.037050 -0.041050 -0.177080 
-0.543410 16.990030 3.224580 14.378519 -36.445372 -12.807045 -15.151442 13.808966 4.421996 19.800856 -4.883013 -15.395653 -23.094739 15.016902 27.831912 0.703238 8.648825 1.382181 0.127400 0.072020 0.254200 18.246919 -10.855701 0.933970 -10.513503 -2.610997 -15.890476 -20.805882 0.134708 35.543870 -0.480129 -5.281178 2.456946 0.060900 0.021480 0.079990 -3.027431 -4.564986 -7.447314 8.605729 -9.857708 21.335612 -4.584737 -7.473469 11.480814 1.166760 -8.734600 -13.094327 -29.506486 23.685426 40.340462 -9.638270 22.391520 0.582630 -14.346717 -12.335161 3.500840 -12.565133 -15.931198 -0.488531 -30.802529 -52.192191 14.720812 -3.703169 3.502732 0.155360 0.131200 0.049120 -0.007160 12.503321 14.033325 8.837733 13.122754 -1.037093 -4.062740 -0.768418 25.769016 0.252155 2.381856 -1.367915 -0.099520 0.010760 -0.030530 -0.171550 
-0.560570 16.970480 3.203040 14.373906 -40.078760 -12.323114 -15.101016 13.859565 4.333871 20.803258 -4.077278 -18.495084 -19.080774 13.861623 28.381464 0.524420 8.108984 1.511865 0.096980 0.027690 0.256170 18.258903 -10.917069 1.124332 -10.613757 -1.258322 -16.327449 -18.777059 -0.173077 35.424229 -0.421928 -5.062846 2.529892 0.020340 -0.003660 0.077060 -3.093323 -4.288077 -7.485601 9.383110 -8.943736 22.933098 -4.564554 -6.359357 10.602166 2.016627 -9.327089 -13.782587 -30.082894 24.447732 39.044658 -11.413210 23.875880 0.302470 -15.358420 -13.464401 4.659804 -10.367925 -11.036025 -1.373858 -25.061091 -42.497076 9.448776 -3.656657 3.443727 0.175680 0.115130 0.062660 -0.024090 11.981774 16.604038 8.874609 9.652195 2.170404 -4.202921 -2.605858 27.563707 0.154680 2.396274 -1.319096 -0.100930 -0.008050 -0.023600 -0.183800 
-0.553640 16.993200 3.130980 15.576093 -44.631073 -12.425171 -15.083481 13.684431 4.394080 20.921796 -3.713228 -22.518295 -16.797455 13.501545 29.866794 0.440031 7.917032 1.553904 0.085710 0.019370 0.244550 18.279694 -10.879143 1.395013 -9.770071 0.519724 -18.223885 -19.299253 0.668448 34.740618 -0.381599 -4.889604 2.588952 0.018020 0.016170 0.077350 -3.201995 -3.833296 -7.608800 9.138644 -7.300001 25.448380 -4.710534 -4.473015 9.135611 2.078437 -9.741777 -13.659957 -29.369022 25.183572 37.464208 -11.004440 24.776520 0.402130 -17.058293 -14.294893 5.209447 -6.492951 -7.722799 -1.072937 -20.030959 -31.625198 5.750309 -3.660281 3.403020 0.163390 0.128900 0.049870 -0.020630 13.504494 18.845516 8.173988 5.208851 6.174836 -4.407543 -3.815610 29.272900 0.055480 2.401577 -1.309934 -0.107390 -0.010010 -0.021930 -0.179750 
-0.522680 17.066830 3.063390 15.681867 -45.965444 -11.744718 -15.076809 13.513351 4.495796 19.908570 -3.701662 -26.688239 -14.950583 12.380631 29.354199 0.304755 7.386101 1.725450 0.058890 -0.026240 0.251880 18.289269 -10.826661 1.650517 -8.473569 1.933991 -19.658622 -18.722261 0.867752 36.097107 -0.377970 -4.958661 2.559571 -0.006530 0.011580 0.085460 -3.316462 -3.481940 -7.723471 9.622400 -6.551467 28.021254 -5.312040 -3.357940 7.837653 2.624921 -9.913506 -13.361228 -27.635338 24.061476 36.799791 -12.560680 24.833210 0.110040 -19.231406 -15.104931 5.624630 -4.134352 -5.976075 -0.580184 -14.080571 -21.179983 2.898650 -3.669408 3.315167 0.160090 0.140190 0.040690 -0.037640 14.483898 20.753447 7.427198 2.690087 9.842614 -4.940336 -4.808493 31.022039 -0.037738 2.402834 -1.290862 -0.114580 -0.027320 -0.013290 -0.192830 
